HIERARCHY
ROOT hip
{
  OFFSET 0.00112043 5.09927 -9.65472
  CHANNELS 6 Xposition Yposition Zposition Zrotation Xrotation Yrotation
  JOINT abdomen
  {
    OFFSET 0 -1.186 -1.5018
    CHANNELS 3 Zrotation Xrotation Yrotation
    JOINT abdomen2
    {
      OFFSET 0 9.964 0.2134
      CHANNELS 3 Zrotation Xrotation Yrotation
      JOINT chest
      {
        OFFSET 0 13.134 -3.2573
        CHANNELS 3 Zrotation Xrotation Yrotation
        JOINT neck
        {
          OFFSET 0 20.686 -1.6905
          CHANNELS 3 Zrotation Xrotation Yrotation
          JOINT head
          {
            OFFSET 0 7.238 -0.1237
            CHANNELS 3 Zrotation Xrotation Yrotation
            End Site
            {
              OFFSET 0 0 0
            }
          }
        }
        JOINT lCollar
        {
          OFFSET 1.7069 20.075 5.0056
          CHANNELS 3 Zrotation Xrotation Yrotation
          JOINT lShldr
          {
            OFFSET 13.6458 -0.047 -4.849
            CHANNELS 3 Zrotation Xrotation Yrotation
            JOINT lForeArm
            {
              OFFSET 28.3255 -0.9759 2.2888
              CHANNELS 3 Zrotation Xrotation Yrotation
              JOINT lHand
              {
                OFFSET 22.1583 -0.53 10.8316
                CHANNELS 3 Zrotation Xrotation Yrotation
                JOINT lThumb1
                {
                  OFFSET 0.786 0.112 2.5817
                  CHANNELS 3 Zrotation Xrotation Yrotation
                  JOINT lThumb2
                  {
                    OFFSET 0.3601 -0.878 4.2331
                    CHANNELS 3 Zrotation Xrotation Yrotation
                    JOINT lThumb2_End
                    {
                      OFFSET 1.8127 -1.216 2.2227
                      CHANNELS 3 Zrotation Xrotation Yrotation
                      End Site
                      {
                        OFFSET 0.0181 -0.0122 0.0222
                      }
                    }
                  }
                }
                JOINT lCarpal1
                {
                  OFFSET 0.9571 1.114 1.7695
                  CHANNELS 3 Zrotation Xrotation Yrotation
                  JOINT lIndex1
                  {
                    OFFSET 4.1246 0.487 4.1451
                    CHANNELS 3 Zrotation Xrotation Yrotation
                    JOINT lIndex2
                    {
                      OFFSET 3.4052 -1.454 2.7682
                      CHANNELS 3 Zrotation Xrotation Yrotation
                      JOINT lIndex2_End
                      {
                        OFFSET 1.4531 -1.795 1.2713
                        CHANNELS 3 Zrotation Xrotation Yrotation
                        End Site
                        {
                          OFFSET 0.0145 -0.0179 0.0127
                        }
                      }
                    }
                  }
                  JOINT lMid1
                  {
                    OFFSET 5.6954 0.21 2.1184
                    CHANNELS 3 Zrotation Xrotation Yrotation
                    JOINT lMid2
                    {
                      OFFSET 3.9766 -1.54 2.3863
                      CHANNELS 3 Zrotation Xrotation Yrotation
                      JOINT lMid2_End
                      {
                        OFFSET 1.4042 -1.926 1.125
                        CHANNELS 3 Zrotation Xrotation Yrotation
                        End Site
                        {
                          OFFSET 0.014 -0.0193 0.0113
                        }
                      }
                    }
                  }
                }
                JOINT lCarpal2
                {
                  OFFSET 2.0956 0.66 -0.3894
                  CHANNELS 3 Zrotation Xrotation Yrotation
                  JOINT lRing1
                  {
                    OFFSET 5.0395 -0.09 2.4971
                    CHANNELS 3 Zrotation Xrotation Yrotation
                    JOINT lRing2
                    {
                      OFFSET 3.7921 -1.552 1.4806
                      CHANNELS 3 Zrotation Xrotation Yrotation
                      JOINT lRing2_End
                      {
                        OFFSET 1.4655 -1.808 0.9609
                        CHANNELS 3 Zrotation Xrotation Yrotation
                        End Site
                        {
                          OFFSET 0.0147 -0.0181 0.0096
                        }
                      }
                    }
                  }
                  JOINT lPinky1
                  {
                    OFFSET 4.9141 -1.269 0.3591
                    CHANNELS 3 Zrotation Xrotation Yrotation
                    JOINT lPinky2
                    {
                      OFFSET 3.1477 -1.685 0.8462
                      CHANNELS 3 Zrotation Xrotation Yrotation
                      JOINT lPinky2_End
                      {
                        OFFSET 0.8055 -1.585 0.7955
                        CHANNELS 3 Zrotation Xrotation Yrotation
                        End Site
                        {
                          OFFSET 0.0081 -0.0158 0.008
                        }
                      }
                    }
                  }
                }
              }
            }
          }
        }
        JOINT rCollar
        {
          OFFSET -1.7069 20.075 5.0056
          CHANNELS 3 Zrotation Xrotation Yrotation
          JOINT rShldr
          {
            OFFSET -13.6458 -0.047 -4.849
            CHANNELS 3 Zrotation Xrotation Yrotation
            JOINT rForeArm
            {
              OFFSET -28.3255 -0.9759 2.2888
              CHANNELS 3 Zrotation Xrotation Yrotation
              JOINT rHand
              {
                OFFSET -22.1583 -0.53 10.8316
                CHANNELS 3 Zrotation Xrotation Yrotation
                JOINT rThumb1
                {
                  OFFSET -0.786 0.112 2.5817
                  CHANNELS 3 Zrotation Xrotation Yrotation
                  JOINT rThumb2
                  {
                    OFFSET -0.3601 -0.878 4.2331
                    CHANNELS 3 Zrotation Xrotation Yrotation
                    JOINT rThumb2_End
                    {
                      OFFSET -1.8127 -1.216 2.2227
                      CHANNELS 3 Zrotation Xrotation Yrotation
                      End Site
                      {
                        OFFSET -0.0181 -0.0122 0.0222
                      }
                    }
                  }
                }
                JOINT rCarpal1
                {
                  OFFSET -0.9571 1.114 1.7695
                  CHANNELS 3 Zrotation Xrotation Yrotation
                  JOINT rIndex1
                  {
                    OFFSET -4.1246 0.487 4.1451
                    CHANNELS 3 Zrotation Xrotation Yrotation
                    JOINT rIndex2
                    {
                      OFFSET -3.4052 -1.454 2.7682
                      CHANNELS 3 Zrotation Xrotation Yrotation
                      JOINT rIndex2_End
                      {
                        OFFSET -1.4531 -1.795 1.2713
                        CHANNELS 3 Zrotation Xrotation Yrotation
                        End Site
                        {
                          OFFSET -0.0145 -0.018 0.0127
                        }
                      }
                    }
                  }
                  JOINT rMid1
                  {
                    OFFSET -5.6954 0.21 2.1184
                    CHANNELS 3 Zrotation Xrotation Yrotation
                    JOINT rMid2
                    {
                      OFFSET -3.9766 -1.54 2.3863
                      CHANNELS 3 Zrotation Xrotation Yrotation
                      JOINT rMid2_End
                      {
                        OFFSET -1.4042 -1.926 1.125
                        CHANNELS 3 Zrotation Xrotation Yrotation
                        End Site
                        {
                          OFFSET -0.014 -0.0193 0.0113
                        }
                      }
                    }
                  }
                }
                JOINT rCarpal2
                {
                  OFFSET -2.0956 0.66 -0.3894
                  CHANNELS 3 Zrotation Xrotation Yrotation
                  JOINT rRing1
                  {
                    OFFSET -5.0395 -0.09 2.4971
                    CHANNELS 3 Zrotation Xrotation Yrotation
                    JOINT rRing2
                    {
                      OFFSET -3.7921 -1.552 1.4806
                      CHANNELS 3 Zrotation Xrotation Yrotation
                      JOINT rRing2_End
                      {
                        OFFSET -1.4655 -1.808 0.9609
                        CHANNELS 3 Zrotation Xrotation Yrotation
                        End Site
                        {
                          OFFSET -0.0147 -0.0181 0.0096
                        }
                      }
                    }
                  }
                  JOINT rPinky1
                  {
                    OFFSET -4.9141 -1.269 0.3592
                    CHANNELS 3 Zrotation Xrotation Yrotation
                    JOINT rPinky2
                    {
                      OFFSET -3.1477 -1.685 0.8462
                      CHANNELS 3 Zrotation Xrotation Yrotation
                      JOINT rPinky2_End
                      {
                        OFFSET -0.8055 -1.585 0.7955
                        CHANNELS 3 Zrotation Xrotation Yrotation
                        End Site
                        {
                          OFFSET -0.0081 -0.0158 0.008
                        }
                      }
                    }
                  }
                }
              }
            }
          }
        }
      }
    }
  }
  JOINT lThigh
  {
    OFFSET 8.367 -8.2066 0.5982
    CHANNELS 3 Zrotation Xrotation Yrotation
    JOINT lShin
    {
      OFFSET 2.1923 -43.463 -0.4932
      CHANNELS 3 Zrotation Xrotation Yrotation
      JOINT lFoot
      {
        OFFSET 0.7333 -45.8593 -2.6451
        CHANNELS 3 Zrotation Xrotation Yrotation
        End Site
        {
          OFFSET 2.6618 -4.2699 12.3931
        }
      }
    }
  }
  JOINT rThigh
  {
    OFFSET -8.367 -8.2066 0.5982
    CHANNELS 3 Zrotation Xrotation Yrotation
    JOINT rShin
    {
      OFFSET -2.1923 -43.463 -0.4931
      CHANNELS 3 Zrotation Xrotation Yrotation
      JOINT rFoot
      {
        OFFSET -0.7333 -45.8593 -2.6451
        CHANNELS 3 Zrotation Xrotation Yrotation
        End Site
        {
          OFFSET -2.6618 -4.2699 12.3931
        }
      }
    }
  }
}
MOTION
Frames:	6
Frame Time:	0.0333333
-23.7357 42.1152 48.2166 0.0115509 6.88681e-015 168.958 1.51191 2.45982 -0.349934 3.04305 4.90951 -0.765834 3.04305 4.9095 -0.765832 -0.354144 15.1769 0.0986074 -0.340782 -31.9621 -0.20342 -17.1532 -22.0366 -38.9217 -89.0102 26.7189 29.8528 16.8882 19.9139 -15.8059 -15.8834 11.626 -24.5503 -2.39684e-006 4.18826e-007 5.53501e-006 -2.39684e-006 4.18826e-007 5.53501e-006 1.59028e-015 6.36111e-015 3.57812e-015 0 0 -2.38542e-015 -2.39684e-006 4.18826e-007 5.53501e-006 -2.39684e-006 4.18826e-007 5.53501e-006 1.59028e-015 3.18055e-015 3.18055e-015 -2.39684e-006 4.18826e-007 5.53501e-006 -2.39684e-006 4.18826e-007 5.53501e-006 1.59028e-015 3.18055e-015 3.18055e-015 0 0 -2.38542e-015 -2.39684e-006 4.18826e-007 5.53501e-006 -2.39684e-006 4.18826e-007 5.53501e-006 1.59028e-015 3.18055e-015 3.18055e-015 -2.39684e-006 4.18826e-007 5.53501e-006 -2.39684e-006 4.18826e-007 5.53501e-006 1.59028e-015 3.18055e-015 3.18055e-015 6.42789 -14.7141 -1.66096 7.12706 -39.5987 23.7755 -29.4229 -10.8179 58.005 8.98071 -25.1854 -3.55221 3.18055e-015 -1.59028e-015 -2.38542e-015 -0 0 4.77083e-015 3.18055e-015 1.59028e-015 -3.18055e-015 0 0 -3.18055e-015 -0 0 7.95139e-016 -0 0 4.77083e-015 3.18055e-015 1.59028e-015 -3.18055e-015 -0 0 7.95139e-016 -0 0 4.77083e-015 3.18055e-015 1.59028e-015 -3.18055e-015 0 0 -3.18055e-015 -0 0 7.95139e-016 -0 0 4.77083e-015 3.18055e-015 1.59028e-015 -3.18055e-015 -0 0 7.95139e-016 -0 0 4.77083e-015 3.18055e-015 1.59028e-015 -3.18055e-015 5.91724 -13.7934 3.26655 154.214 74.0022 -148.281 23.5578 63.9507 -15.2888 10.8128 -14.308 -11.6835 -127.275 67.7335 109.453 -16.9966 64.6917 1.1418 
-23.313 42.1078 47.9261 0.0115509 6.88681e-015 168.958 1.56546 2.39882 -0.353791 3.14986 4.78702 -0.774108 3.14986 4.78703 -0.774118 -0.384597 15.6103 0.108465 -0.367392 -31.5416 -0.218285 -16.1619 -21.9682 -38.5023 -89.676 26.493 30.1491 17.0797 19.7423 -16.5531 -15.7021 11.6632 -24.7989 1.59028e-015 0 1.98785e-015 -2.42765e-031 3.18055e-015 4.37326e-015 1.59028e-015 3.18055e-015 1.19271e-015 -0 -3.18055e-015 -0 4.77083e-015 0 7.95139e-016 3.18055e-015 3.18055e-015 -3.97569e-016 1.59028e-015 0 2.78299e-015 4.77083e-015 0 7.95139e-016 3.18055e-015 3.18055e-015 -3.97569e-016 1.59028e-015 0 2.78299e-015 -0 -3.18055e-015 -0 4.77083e-015 0 7.95139e-016 3.18055e-015 3.18055e-015 -3.97569e-016 1.59028e-015 0 2.78299e-015 4.77083e-015 0 7.95139e-016 3.18055e-015 3.18055e-015 -3.97569e-016 1.59028e-015 0 2.78299e-015 5.47292 -11.416 1.41647 8.3651 -44.1651 24.3519 -29.1345 -7.98138 58.2302 8.33881 -25.4273 -3.46991 3.18055e-015 4.77083e-015 -3.18055e-015 3.97252e-031 3.18055e-015 -7.15625e-015 8.82781e-032 3.18055e-015 -1.59028e-015 6.36111e-015 4.77083e-015 -2.38542e-015 3.18055e-015 0 -7.95139e-016 5.95877e-031 4.77083e-015 -7.15625e-015 1.32417e-031 4.77083e-015 -1.59028e-015 3.18055e-015 0 -7.95139e-016 5.95877e-031 4.77083e-015 -7.15625e-015 1.32417e-031 4.77083e-015 -1.59028e-015 6.36111e-015 4.77083e-015 -2.38542e-015 3.18055e-015 0 -7.95139e-016 5.95877e-031 4.77083e-015 -7.15625e-015 1.32417e-031 4.77083e-015 -1.59028e-015 3.18055e-015 0 -7.95139e-016 5.95877e-031 4.77083e-015 -7.15625e-015 1.32417e-031 4.77083e-015 -1.59028e-015 6.25181 -13.3897 3.11171 154.11 74.0687 -148.19 23.8951 63.7647 -15.8586 11.7933 -13.7978 -12.0503 -125.719 67.0229 106.841 -17.1088 64.6096 1.20909 
-22.8903 42.0996 47.636 0.0115509 6.88681e-015 168.958 1.61898 2.3378 -0.357586 3.25661 4.66451 -0.782165 3.25661 4.66451 -0.782167 -0.415118 16.0439 0.118581 -0.393752 -31.1212 -0.232852 -15.1719 -21.893 -38.0847 -90.339 26.2641 30.4417 17.2688 19.5682 -17.2994 -15.5207 11.6997 -25.0476 -4.77083e-015 0 4.37326e-015 -1.73722e-006 1.77663e-006 -2.06683e-006 -1.59028e-015 -6.36111e-015 4.37326e-015 -3.18055e-015 0 2.78299e-015 -1.59028e-015 -3.18055e-015 1.15295e-014 -1.73722e-006 1.77663e-006 -2.06683e-006 0 3.18055e-015 -0 -1.59028e-015 -3.18055e-015 1.15295e-014 -1.73722e-006 1.77663e-006 -2.06683e-006 0 3.18055e-015 -0 -3.18055e-015 0 2.78299e-015 -1.59028e-015 -3.18055e-015 1.15295e-014 -1.73722e-006 1.77663e-006 -2.06683e-006 0 3.18055e-015 -0 -1.59028e-015 -3.18055e-015 1.15295e-014 -1.73722e-006 1.77663e-006 -2.06683e-006 0 3.18055e-015 -0 4.32368 -8.1777 4.5047 9.77282 -48.694 25.0889 -28.7896 -5.17604 58.4441 7.69608 -25.6699 -3.39049 -3.18055e-015 4.77083e-015 7.95139e-016 -6.36111e-015 1.59028e-015 -2.38542e-015 -3.18055e-015 6.36111e-015 -3.97569e-015 3.18055e-015 1.59028e-015 1.59028e-015 3.97252e-031 -3.18055e-015 7.15625e-015 -6.36111e-015 6.36111e-015 -5.56597e-015 -9.54166e-015 7.95139e-015 -5.56597e-015 3.97252e-031 -3.18055e-015 7.15625e-015 -6.36111e-015 6.36111e-015 -5.56597e-015 -9.54166e-015 7.95139e-015 -5.56597e-015 3.18055e-015 1.59028e-015 1.59028e-015 3.97252e-031 -3.18055e-015 7.15625e-015 -6.36111e-015 6.36111e-015 -5.56597e-015 -9.54166e-015 7.95139e-015 -5.56597e-015 3.97252e-031 -3.18055e-015 7.15625e-015 -6.36111e-015 6.36111e-015 -5.56597e-015 -9.54166e-015 7.95139e-015 -5.56597e-015 6.587 -12.9872 2.9548 154.006 74.1349 -148.099 24.2257 63.5772 -16.4217 12.7753 -13.2947 -12.4256 -124.287 66.2872 104.352 -17.2173 64.5285 1.27352 
-22.4674 42.0909 47.3462 0.0115509 6.88681e-015 168.958 1.67248 2.27676 -0.361298 3.36326 4.54195 -0.789991 3.36326 4.54194 -0.78998 -0.44579 16.4779 0.12894 -0.419873 -30.7007 -0.247124 -14.1834 -21.8112 -37.6688 -90.9993 26.0322 30.7309 17.4554 19.3917 -18.0448 -15.3391 11.7354 -25.2965 3.18055e-015 9.54166e-015 3.97569e-015 -2.39601e-006 4.36309e-007 5.54487e-006 1.59028e-015 0 -4.37326e-015 -8.82781e-032 3.18055e-015 1.59028e-015 1.59028e-015 9.54166e-015 7.15625e-015 -2.39601e-006 4.36309e-007 5.54487e-006 1.59028e-015 -9.54166e-015 -7.95139e-015 1.59028e-015 9.54166e-015 7.15625e-015 -2.39601e-006 4.36309e-007 5.54487e-006 1.59028e-015 -9.54166e-015 -7.95139e-015 -8.82781e-032 3.18055e-015 1.59028e-015 1.59028e-015 9.54166e-015 7.15625e-015 -2.39601e-006 4.36309e-007 5.54487e-006 1.59028e-015 -9.54166e-015 -7.95139e-015 1.59028e-015 9.54166e-015 7.15625e-015 -2.39601e-006 4.36309e-007 5.54487e-006 1.59028e-015 -9.54166e-015 -7.95139e-015 2.97943 -5.03238 7.62811 11.4226 -53.1985 26.1578 -28.4881 -2.32194 58.6513 7.05258 -25.9133 -3.31393 -5.5839e-006 -3.45457e-006 2.33237e-007 5.5839e-006 3.45457e-006 -2.33238e-007 -5.5839e-006 -3.45457e-006 2.33237e-007 -3.18055e-015 0 3.97569e-015 -5.5839e-006 -3.45457e-006 2.33237e-007 5.5839e-006 3.45457e-006 -2.33238e-007 -5.5839e-006 -3.45457e-006 2.33237e-007 -5.5839e-006 -3.45457e-006 2.33237e-007 5.5839e-006 3.45457e-006 -2.33238e-007 -5.5839e-006 -3.45457e-006 2.33237e-007 -3.18055e-015 0 3.97569e-015 -5.5839e-006 -3.45457e-006 2.33237e-007 5.5839e-006 3.45457e-006 -2.33238e-007 -5.5839e-006 -3.45457e-006 2.33237e-007 -5.5839e-006 -3.45457e-006 2.33237e-007 5.5839e-006 3.45457e-006 -2.33238e-007 -5.5839e-006 -3.45457e-006 2.33237e-007 6.92261 -12.5869 2.79578 153.903 74.1997 -148.01 24.5495 63.3883 -16.9784 13.7587 -12.7998 -12.8094 -122.975 65.5281 101.98 -17.3215 64.4482 1.33485 
-22.0446 42.0815 47.0567 0.0115509 6.88681e-015 168.958 1.72595 2.21573 -0.365003 3.46987 4.41939 -0.797591 3.46988 4.41939 -0.797588 -0.476738 16.9113 0.139637 -0.445761 -30.2803 -0.261117 -13.1967 -21.7229 -37.255 -91.6568 25.7974 31.0164 17.6394 19.2128 -18.7892 -15.1574 11.7704 -25.5455 -1.59028e-015 9.54166e-015 -7.95139e-016 -6.60556e-006 -1.05599e-006 5.89941e-006 6.70545e-007 -1.98069e-006 1.86327e-006 0 3.18055e-015 -0 -2.64834e-031 6.36111e-015 2.38542e-015 -6.60556e-006 -1.05599e-006 5.89941e-006 6.70545e-007 -1.98069e-006 1.86327e-006 -2.64834e-031 6.36111e-015 2.38542e-015 -6.60556e-006 -1.05599e-006 5.89941e-006 6.70545e-007 -1.98069e-006 1.86327e-006 0 3.18055e-015 -0 -2.64834e-031 6.36111e-015 2.38542e-015 -6.60556e-006 -1.05599e-006 5.89941e-006 6.70545e-007 -1.98069e-006 1.86327e-006 -2.64834e-031 6.36111e-015 2.38542e-015 -6.60556e-006 -1.05599e-006 5.89941e-006 6.70545e-007 -1.98069e-006 1.86327e-006 1.0606 -2.24911 10.6193 13.6726 -57.7348 28.3683 -28.1968 0.530658 58.8282 6.40826 -26.1574 -3.24031 6.36111e-015 7.95139e-016 2.78299e-015 6.36111e-015 -7.95139e-016 -1.98785e-015 3.18055e-015 7.95139e-016 2.38542e-015 1.10348e-032 7.95139e-016 -7.95139e-016 3.18055e-015 0 -1.98785e-015 6.36111e-015 -2.38542e-015 -1.59028e-015 -3.18055e-015 -7.95139e-016 1.98785e-015 3.18055e-015 0 -1.98785e-015 6.36111e-015 -2.38542e-015 -1.59028e-015 -3.18055e-015 -7.95139e-016 1.98785e-015 1.10348e-032 7.95139e-016 -7.95139e-016 3.18055e-015 0 -1.98785e-015 6.36111e-015 -2.38542e-015 -1.59028e-015 -3.18055e-015 -7.95139e-016 1.98785e-015 3.18055e-015 0 -1.98785e-015 6.36111e-015 -2.38542e-015 -1.59028e-015 -3.18055e-015 -7.95139e-016 1.98785e-015 7.25892 -12.1875 2.63472 153.8 74.2646 -147.92 24.8666 63.1979 -17.5286 14.7435 -12.3123 -13.2013 -121.774 64.7492 99.718 -17.4222 64.3688 1.39345 
-21.6216 42.0716 46.7676 0.0115509 6.88681e-015 168.958 1.77938 2.15466 -0.368658 3.57637 4.29677 -0.804947 3.57637 4.29676 -0.80495 -0.507711 17.3453 0.15053 -0.471414 -29.86 -0.274824 -12.2118 -21.6279 -36.8434 -92.3116 25.5597 31.2982 17.8208 19.0316 -19.5326 -14.9754 11.8045 -25.7946 1.59028e-015 -3.18055e-015 1.59028e-015 1.32417e-031 -6.36111e-015 1.19271e-015 2.20695e-032 -3.18055e-015 3.97569e-016 1.59028e-015 -6.36111e-015 1.59028e-015 3.97252e-031 -6.36111e-015 3.57812e-015 -1.59028e-015 -3.18055e-015 3.97569e-016 -2.42765e-031 3.18055e-015 4.37326e-015 3.97252e-031 -6.36111e-015 3.57812e-015 -1.59028e-015 -3.18055e-015 3.97569e-016 -2.42765e-031 3.18055e-015 4.37326e-015 1.59028e-015 -6.36111e-015 1.59028e-015 3.97252e-031 -6.36111e-015 3.57812e-015 -1.59028e-015 -3.18055e-015 3.97569e-016 -2.42765e-031 3.18055e-015 4.37326e-015 3.97252e-031 -6.36111e-015 3.57812e-015 -1.59028e-015 -3.18055e-015 3.97569e-016 -2.42765e-031 3.18055e-015 4.37326e-015 -1.02153 0.419946 13.6865 16.6897 -62.2213 31.4086 -27.914 3.38425 59.0077 5.76318 -26.4021 -3.16963 2.40525e-006 -1.66188e-006 -1.64819e-006 -8.13425e-006 -1.48673e-006 2.03262e-006 -2.8645e-006 -1.57431e-006 1.92212e-007 9.54166e-015 -7.95139e-016 -4.96962e-015 2.40525e-006 -1.66188e-006 -1.64819e-006 -8.13425e-006 -1.48673e-006 2.03262e-006 -2.8645e-006 -1.57431e-006 1.92212e-007 2.40525e-006 -1.66188e-006 -1.64819e-006 -8.13425e-006 -1.48673e-006 2.03262e-006 -2.8645e-006 -1.57431e-006 1.92212e-007 9.54166e-015 -7.95139e-016 -4.96962e-015 2.40525e-006 -1.66188e-006 -1.64819e-006 -8.13425e-006 -1.48673e-006 2.03262e-006 -2.8645e-006 -1.57431e-006 1.92212e-007 2.40525e-006 -1.66188e-006 -1.64819e-006 -8.13425e-006 -1.48673e-006 2.03262e-006 -2.8645e-006 -1.57431e-006 1.92212e-007 7.59588 -11.7893 2.47161 153.696 74.3291 -147.83 25.1771 63.0063 -18.0724 15.7293 -11.8337 -13.6012 -120.679 63.9524 97.5602 -17.5192 64.2902 1.44928 
